<?xml version="1.0" standalone="no"?>
<!DOCTYPE svg PUBLIC "-//W3C//DTD SVG 20010904//EN"
 "http://www.w3.org/TR/2001/REC-SVG-20010904/DTD/svg10.dtd">
<svg version="1.0" xmlns="http://www.w3.org/2000/svg"
 width="800.000000pt" height="600.000000pt" viewBox="0 0 800.000000 600.000000"
 preserveAspectRatio="xMidYMid meet">

<g transform="translate(0.000000,600.000000) scale(0.100000,-0.100000)"
fill="#000000" stroke="none">
<path d="M2698 3935 c-100 -86 -223 -190 -273 -233 -84 -72 -213 -181 -310
-262 -23 -19 -90 -76 -148 -126 l-106 -92 42 -33 c40 -32 135 -113 256 -217
30 -26 63 -53 75 -61 11 -8 25 -21 29 -28 6 -10 16 -6 43 21 33 33 45 54 22
40 -7 -4 -8 -3 -4 5 4 6 11 9 16 6 7 -4 35 23 182 178 21 21 35 44 31 50 -3 5
-2 7 4 4 5 -3 29 14 53 38 l44 45 -47 0 c-26 0 -47 4 -47 8 0 5 24 16 53 25
58 19 200 118 178 125 -7 2 -17 -1 -21 -8 -4 -7 -12 -10 -17 -7 -4 3 -33 -1
-63 -9 -74 -19 -96 -19 -80 1 7 8 17 15 22 15 18 0 134 89 193 149 l59 61 -76
-30 c-42 -16 -85 -33 -95 -38 -89 -47 -158 -54 -88 -10 87 56 233 217 218 241
-3 6 -1 7 5 3 10 -6 46 33 38 42 -2 2 -28 -12 -58 -31 -73 -47 -189 -115 -210
-123 -29 -10 -21 14 10 30 60 31 175 174 208 257 10 24 22 47 27 50 5 4 6 12
3 18 -4 6 -3 11 2 11 5 0 12 9 15 20 3 11 4 20 2 20 -2 0 -86 -70 -187 -155z"/>
<path d="M3423 3338 c-22 -37 -273 -537 -273 -544 0 -2 38 -4 84 -4 l85 0 23
43 23 42 122 3 122 3 6 -45 7 -46 84 0 c61 0 84 3 84 13 0 13 -57 291 -64 317
-3 8 -16 67 -29 130 l-24 115 -115 3 -116 3 -19 -33z m127 -135 c0 -16 6 -62
14 -103 8 -41 12 -78 10 -82 -9 -15 -124 -9 -130 6 -3 8 13 51 35 96 23 45 41
88 41 96 0 8 7 14 15 14 10 0 15 -10 15 -27z"/>
<path d="M4720 3275 c-7 -52 -16 -95 -21 -95 -5 0 -23 9 -41 20 -24 14 -51 20
-95 20 -58 0 -66 -3 -102 -36 -53 -47 -75 -113 -76 -224 0 -96 13 -126 68
-161 43 -27 122 -22 163 10 l29 23 3 -21 c3 -19 10 -21 77 -21 l73 0 6 33 c5
32 59 411 71 500 l6 47 -74 0 -74 0 -13 -95z m-46 -190 c16 -12 18 -22 11 -79
-5 -51 -11 -69 -28 -81 -30 -21 -81 -29 -106 -16 -17 10 -21 20 -20 64 1 72
11 100 39 114 33 17 80 16 104 -2z"/>
<path d="M1188 3333 l-36 -15 61 -51 c34 -28 64 -54 67 -57 17 -21 78 -59 85
-52 5 4 5 2 2 -4 -4 -7 0 -17 8 -24 16 -13 21 -10 138 92 38 32 38 34 20 50
-11 10 -52 31 -92 48 -60 24 -87 30 -145 29 -39 -1 -88 -8 -108 -16z"/>
<path d="M3922 3193 c-4 -56 -31 -239 -41 -283 -6 -25 -10 -62 -11 -82 l0 -38
69 0 c76 0 81 5 81 77 0 17 5 35 10 38 6 4 10 18 9 33 -2 95 22 134 94 147 32
6 37 5 42 -17 3 -13 -1 -78 -9 -143 -9 -66 -16 -123 -16 -127 0 -4 33 -8 74
-8 l73 0 20 163 c20 172 17 229 -13 252 -36 27 -154 14 -195 -21 -24 -21 -39
-17 -39 11 0 24 -2 25 -73 25 -72 0 -73 0 -75 -27z"/>
<path d="M5030 3209 c-47 -19 -87 -58 -113 -111 -83 -169 -7 -318 160 -318 50
0 133 19 133 30 0 4 12 10 28 13 37 9 61 27 45 34 -7 2 -13 8 -13 13 0 5 -4
20 -10 34 -9 24 -11 25 -42 12 -85 -36 -188 -26 -196 18 -6 30 16 36 150 36
l128 0 6 25 c3 14 4 53 2 85 -5 64 -26 98 -80 126 -31 16 -160 18 -198 3z
m146 -94 c9 -8 14 -27 12 -42 -3 -27 -5 -28 -75 -31 -83 -3 -91 6 -47 57 20
24 34 31 61 31 19 0 41 -7 49 -15z"/>
<path d="M5490 3212 c-60 -27 -90 -73 -90 -137 0 -41 5 -56 23 -71 29 -26 96
-56 108 -49 5 4 9 2 9 -2 0 -5 14 -14 30 -20 21 -8 28 -16 24 -27 -8 -21 -83
-21 -154 0 -42 13 -54 13 -61 3 -4 -7 -5 -17 -2 -23 3 -5 2 -6 -4 -3 -6 4 -15
-5 -22 -20 -6 -14 -10 -26 -9 -27 68 -38 118 -51 198 -51 78 0 91 3 129 28 47
31 71 76 71 132 0 50 -43 88 -118 105 -69 15 -92 26 -92 45 0 23 39 38 79 30
70 -13 76 -14 96 -20 19 -5 26 4 63 86 10 22 -235 40 -278 21z"/>
<path d="M5892 3192 c-49 -46 -75 -114 -79 -207 -4 -89 5 -115 50 -149 37 -27
140 -29 180 -3 34 22 37 22 37 -7 0 -14 -12 -39 -27 -57 l-27 -32 -102 6 -101
5 -10 -43 c-9 -41 -8 -44 15 -57 34 -18 273 -19 279 0 3 6 10 12 17 12 7 0 24
12 38 28 53 56 66 98 96 320 l28 212 -73 0 c-69 0 -73 -1 -79 -25 -8 -31 -11
-31 -41 -3 -20 18 -39 23 -97 26 -68 4 -73 3 -104 -26z m206 -108 c23 -16 24
-27 6 -112 -5 -25 -56 -52 -98 -52 -59 0 -72 105 -20 157 27 27 79 31 112 7z"/>
<path d="M6444 3200 c-85 -42 -124 -117 -124 -239 0 -54 5 -75 23 -101 42 -63
69 -75 165 -75 74 0 96 4 145 28 61 29 63 33 46 82 l-12 32 -41 -15 c-49 -16
-161 -21 -175 -7 -5 6 -11 21 -13 35 l-3 25 137 3 137 3 6 43 c14 90 -14 159
-75 191 -44 23 -165 20 -216 -5z m159 -84 c12 -10 17 -24 15 -43 -3 -28 -4
-28 -77 -31 -73 -3 -73 -3 -66 20 4 13 7 30 8 39 1 9 7 15 13 12 7 -2 15 0 19
6 9 15 67 13 88 -3z"/>
<path d="M6895 3202 c-48 -30 -60 -49 -44 -69 13 -16 12 -17 -2 -5 -15 11 -18
8 -29 -20 -17 -47 -24 -207 -11 -241 7 -17 15 -25 23 -21 7 4 8 3 4 -5 -11
-17 29 -49 71 -57 45 -8 88 1 124 27 l30 21 6 -21 c5 -19 13 -21 74 -21 63 0
69 2 73 23 8 38 16 86 39 250 l23 157 -78 0 c-43 0 -77 -3 -77 -7 3 -21 -2
-33 -16 -33 -8 0 -15 4 -15 8 0 34 -146 43 -195 14z m193 -119 c17 -16 19 -25
13 -76 -8 -69 -29 -94 -88 -103 -37 -6 -43 -4 -59 21 -16 24 -16 34 -6 84 13
65 39 91 87 91 18 0 42 -8 53 -17z"/>
<path d="M7370 3208 c0 -15 -47 -378 -52 -399 -2 -11 13 -15 73 -17 l75 -3 13
109 c8 60 16 114 20 118 23 32 58 49 109 54 l56 5 11 73 11 72 -43 0 c-35 0
-50 -6 -82 -35 -41 -37 -56 -34 -45 10 l6 25 -76 0 c-54 0 -76 -4 -76 -12z"/>
<path d="M1762 3137 c-7 -8 -8 -18 -4 -22 4 -5 1 -5 -5 -1 -8 4 -73 -46 -171
-131 -87 -76 -187 -163 -222 -193 -35 -30 -159 -137 -274 -238 -116 -101 -233
-202 -260 -225 -26 -23 -58 -51 -71 -63 -12 -11 -35 -31 -51 -43 -16 -12 -51
-44 -79 -69 -27 -26 -87 -78 -132 -116 -45 -38 -80 -73 -76 -79 3 -6 2 -8 -3
-4 -5 3 -23 -6 -39 -19 -17 -13 -25 -24 -20 -24 20 0 165 86 158 94 -4 4 -1 4
8 1 8 -3 37 9 64 27 117 75 200 131 205 137 3 4 18 15 34 25 35 22 226 176
282 227 32 29 39 40 30 50 -9 11 -8 11 6 1 11 -9 18 -10 23 -2 9 15 22 12 22
-5 0 -8 -3 -13 -5 -10 -9 9 -52 -37 -45 -49 3 -6 3 -8 -1 -4 -4 3 -24 -12 -44
-35 -32 -36 -54 -60 -122 -136 -8 -9 -69 -75 -134 -146 -66 -72 -129 -141
-140 -154 l-21 -25 35 22 c43 26 209 143 224 157 6 6 39 32 73 58 34 26 111
95 171 152 60 58 115 105 122 105 6 0 -18 -38 -55 -85 -36 -47 -63 -85 -58
-85 4 0 -3 -7 -15 -16 -14 -9 -21 -22 -18 -31 3 -8 2 -12 -3 -8 -15 8 -52 -51
-45 -72 4 -13 3 -14 -4 -5 -9 14 -20 3 -72 -74 -8 -13 -31 -42 -50 -65 l-35
-43 60 44 c130 98 271 223 363 324 19 20 38 36 43 36 11 0 9 -3 -31 -65 -75
-114 -115 -180 -113 -187 2 -4 -1 -8 -6 -8 -11 0 -44 -50 -44 -67 0 -7 -4 -13
-8 -13 -5 0 -16 -15 -25 -32 l-17 -33 39 34 c126 109 267 258 257 274 -3 6 -1
7 5 3 8 -4 16 3 22 20 7 18 14 24 21 17 10 -10 -24 -176 -41 -198 -4 -5 -11
-20 -14 -32 -4 -12 28 15 76 64 46 47 82 89 81 94 -2 5 1 8 6 6 5 -1 58 50
117 113 60 63 116 116 125 118 9 2 23 -3 30 -10 14 -13 30 -24 299 -206 85
-58 162 -111 171 -118 8 -8 20 -14 25 -14 5 0 2 5 -6 11 -13 9 -13 10 0 6 8
-2 15 -9 15 -15 0 -7 3 -12 8 -12 4 0 20 -11 35 -25 15 -14 32 -25 39 -25 7 0
13 -4 13 -8 0 -12 125 -81 178 -99 36 -12 108 -17 316 -20 l269 -5 -149 128
c-82 70 -185 160 -229 199 -120 107 -146 126 -157 119 -7 -5 -8 -2 -3 5 4 8
-2 19 -15 28 -13 9 -60 48 -105 87 -45 39 -106 91 -135 116 -30 25 -61 52 -70
60 -9 8 -45 40 -80 70 -36 30 -70 60 -76 65 -6 6 -35 31 -65 56 -30 26 -108
93 -175 150 -150 129 -203 173 -213 177 -4 1 -13 -4 -19 -11z m-722 -883 c0
-8 -19 -13 -24 -6 -3 5 1 9 9 9 8 0 15 -2 15 -3z"/>
<path d="M4080 2620 c0 -5 5 -10 10 -10 6 0 10 5 10 10 0 6 -4 10 -10 10 -5 0
-10 -4 -10 -10z"/>
<path d="M4370 2620 c0 -5 5 -10 10 -10 6 0 10 5 10 10 0 6 -4 10 -10 10 -5 0
-10 -4 -10 -10z"/>
<path d="M3286 2549 c-7 -55 -3 -80 8 -68 2 2 8 32 13 67 8 47 7 62 -2 62 -8
0 -15 -24 -19 -61z"/>
<path d="M4295 2598 c-2 -7 -6 -30 -10 -51 -3 -21 -9 -45 -12 -53 -3 -8 1 -14
10 -14 11 0 18 14 22 48 3 26 8 55 10 65 4 19 -14 24 -20 5z"/>
<path d="M5320 2590 c0 -11 -4 -20 -10 -20 -5 0 -7 -13 -4 -29 5 -22 2 -32
-13 -40 -14 -7 -23 -7 -31 1 -18 18 -14 36 9 49 13 7 18 14 12 20 -26 26 -61
-29 -48 -72 5 -14 16 -19 46 -19 44 0 45 1 54 78 3 33 2 52 -5 52 -5 0 -10 -9
-10 -20z"/>
<path d="M4557 2583 c-2 -10 -3 -36 -3 -58 1 -36 4 -40 29 -43 15 -2 27 1 27
7 0 6 -6 11 -14 11 -8 0 -16 7 -20 15 -3 8 -1 15 4 15 6 0 10 6 10 14 0 8 6
16 12 18 9 3 8 9 -4 21 -21 22 -36 22 -41 0z"/>
<path d="M5143 2581 c-7 -10 -9 -22 -6 -25 4 -4 7 -21 7 -39 1 -25 6 -33 24
-35 12 -2 22 1 22 7 0 6 -7 11 -16 11 -8 0 -12 5 -9 10 3 6 1 10 -5 10 -6 0 1
12 15 28 20 21 22 28 10 30 -8 2 -13 8 -10 13 4 5 0 9 -7 9 -7 0 -19 -9 -25
-19z"/>
<path d="M3168 2567 c-16 -12 -22 -33 -19 -69 1 -14 10 -18 41 -18 22 0 40 5
40 10 0 6 -16 10 -36 10 -26 0 -33 3 -27 13 4 6 8 19 8 27 0 21 45 26 45 6 0
-9 5 -16 10 -16 13 0 13 6 0 31 -12 22 -37 24 -62 6z"/>
<path d="M3429 2567 c-44 -34 -28 -87 26 -87 19 0 35 5 35 10 0 6 -13 10 -30
10 -19 0 -30 5 -30 14 0 8 8 13 18 11 9 -1 11 0 5 2 -21 7 -15 33 7 33 11 0
20 -7 20 -15 0 -8 5 -15 10 -15 14 0 13 23 -2 38 -15 15 -39 15 -59 -1z"/>
<path d="M3551 2562 c-11 -21 3 -42 26 -42 7 0 13 -4 13 -10 0 -5 -13 -10 -30
-10 -16 0 -30 -4 -30 -10 0 -17 77 -12 84 6 7 19 -1 34 -18 34 -8 0 -19 7 -26
15 -11 13 -8 15 19 15 17 0 31 5 31 10 0 18 -59 11 -69 -8z"/>
<path d="M3667 2535 c-3 -22 -8 -50 -12 -62 -6 -18 -3 -23 9 -23 9 0 16 8 16
20 0 17 5 19 31 13 37 -7 49 6 49 58 l0 36 -44 -1 c-44 -1 -44 -1 -49 -41z
m72 16 c12 -8 12 -13 -2 -35 -11 -16 -23 -23 -32 -20 -18 7 -20 50 -2 57 18 8
21 8 36 -2z"/>
<path d="M3820 2560 c-23 -23 -26 -50 -8 -68 14 -14 78 -16 78 -2 0 6 -14 10
-31 10 -27 0 -30 3 -27 28 2 19 9 28 26 30 15 2 22 -2 22 -12 0 -9 5 -16 10
-16 14 0 13 23 -2 38 -18 18 -45 15 -68 -8z"/>
<path d="M3962 2573 c-18 -7 -32 -46 -25 -72 4 -16 13 -21 39 -21 19 0 34 5
34 11 0 7 -12 10 -29 7 -24 -4 -28 -1 -28 19 0 13 4 23 9 23 5 0 6 5 3 10 -4
6 7 10 25 10 18 0 29 4 25 10 -7 11 -31 12 -53 3z"/>
<path d="M4067 2533 c-5 -48 -3 -62 9 -50 11 11 17 97 7 97 -6 0 -13 -21 -16
-47z"/>
<path d="M4151 2567 c-6 -6 -11 -28 -11 -49 l0 -38 45 0 c37 0 45 3 45 19 0
10 3 32 6 47 5 28 4 29 -35 30 -22 1 -44 -3 -50 -9z m54 -38 c0 -17 -6 -25
-22 -27 -19 -3 -23 1 -23 21 0 25 14 38 35 33 6 -2 10 -14 10 -27z"/>
<path d="M4359 2558 c0 -13 -2 -35 -4 -50 -3 -20 1 -28 12 -28 12 0 14 10 12
44 -2 24 -1 42 4 39 4 -2 7 1 7 6 0 22 -30 10 -31 -11z"/>
<path d="M4442 2568 c-19 -19 -14 -37 13 -44 35 -9 31 -24 -5 -24 -16 0 -30
-4 -30 -9 0 -15 68 -10 82 7 10 12 10 16 1 19 -7 3 -23 13 -35 23 l-23 19 28
1 c15 0 27 5 27 10 0 14 -43 13 -58 -2z"/>
<path d="M4660 2565 c-10 -12 -14 -37 -12 -67 2 -14 11 -17 47 -16 48 1 47 0
58 69 3 24 1 26 -40 26 -24 0 -48 -6 -53 -12z m58 -33 c2 -13 -4 -25 -17 -31
-16 -9 -21 -7 -26 9 -7 23 11 53 29 47 6 -2 12 -13 14 -25z"/>
<path d="M4866 2561 c-10 -11 -16 -31 -14 -48 3 -24 8 -28 39 -31 32 -3 38 0
48 27 24 58 -32 98 -73 52z m51 -9 c17 -11 5 -49 -17 -55 -11 -3 -21 -2 -24 1
-11 10 -6 50 7 55 18 8 21 8 34 -1z"/>
<path d="M4996 2558 c-3 -13 -6 -35 -6 -50 0 -26 3 -27 44 -26 42 0 44 2 50
37 8 50 7 61 -4 61 -5 0 -10 -9 -10 -21 0 -32 -19 -59 -41 -59 -19 0 -20 4
-14 40 7 43 -8 57 -19 18z"/>
<path d="M5385 2549 c-13 -24 -14 -34 -5 -39 6 -4 10 -11 8 -16 -6 -16 58 -16
72 1 12 15 17 61 7 71 -3 3 -19 8 -36 10 -26 4 -32 1 -46 -27z m60 1 c11 -18
-6 -50 -26 -50 -13 0 -19 7 -19 23 0 13 3 27 7 30 10 10 31 8 38 -3z"/>
<path d="M5528 2558 c-32 -39 -20 -78 24 -78 46 0 77 44 58 81 -15 26 -60 25
-82 -3z m57 -8 c11 -18 -6 -50 -26 -50 -13 0 -19 7 -19 23 0 13 3 27 7 30 10
10 31 8 38 -3z"/>
<path d="M5665 2570 c-2 -4 -7 -26 -11 -48 -5 -35 -4 -42 10 -42 9 0 16 8 16
19 0 29 11 51 25 51 7 0 15 6 18 13 4 10 -4 14 -24 14 -17 0 -32 -3 -34 -7z"/>
</g>
</svg>
