<?xml version="1.0" standalone="no"?>
<!DOCTYPE svg PUBLIC "-//W3C//DTD SVG 20010904//EN"
 "http://www.w3.org/TR/2001/REC-SVG-20010904/DTD/svg10.dtd">
<svg version="1.0" xmlns="http://www.w3.org/2000/svg"
 width="801.000000pt" height="800.000000pt" viewBox="0 0 801.000000 800.000000"
 preserveAspectRatio="xMidYMid meet">

<g transform="translate(0.000000,800.000000) scale(0.100000,-0.100000)"
fill="#000000" stroke="none">
<path d="M270 4005 l0 -1515 3735 0 3735 0 0 1515 0 1515 -3735 0 -3735 0 0
-1515z m7348 -2 l2 -1393 -3615 0 -3615 0 0 1395 0 1395 3613 -2 3612 -3 3
-1392z"/>
<path d="M5105 4261 c-75 -19 -140 -73 -177 -145 -30 -57 -30 -174 0 -232 58
-112 164 -164 295 -143 61 10 147 58 147 82 0 7 -13 27 -30 45 l-29 33 -42
-28 c-33 -22 -54 -28 -95 -28 -161 0 -208 225 -62 301 42 22 95 17 149 -13 48
-27 49 -27 64 -8 57 72 56 74 -18 112 -55 27 -147 39 -202 24z"/>
<path d="M5795 4264 c-99 -26 -180 -94 -203 -172 -30 -100 -3 -221 64 -284 79
-74 219 -93 319 -43 117 57 173 195 133 327 -15 52 -75 118 -132 147 -46 23
-139 35 -181 25z m125 -124 c108 -55 105 -227 -5 -280 -49 -24 -74 -25 -118
-6 -55 23 -89 69 -95 124 -6 71 12 118 60 153 49 35 101 38 158 9z"/>
<path d="M6538 4257 c-65 -19 -110 -52 -149 -111 -30 -45 -34 -60 -37 -132 -3
-71 -1 -87 21 -130 50 -98 134 -147 250 -146 156 1 267 113 267 271 -1 174
-176 297 -352 248z m157 -118 c104 -62 97 -227 -12 -280 -87 -42 -183 3 -212
101 -40 133 105 249 224 179z"/>
<path d="M1117 4253 c-4 -3 -7 -118 -7 -254 l0 -249 24 -6 c13 -3 38 -4 57 -2
l34 3 3 80 c2 65 7 84 25 103 11 12 26 21 33 20 6 -2 46 -49 88 -105 l76 -103
60 0 c39 0 60 4 60 12 0 9 -87 136 -132 193 -42 53 -68 89 -68 94 1 3 43 51
95 105 52 55 95 103 95 108 0 4 -29 8 -64 8 -62 0 -64 -1 -101 -42 -20 -24
-64 -72 -98 -107 l-62 -64 -3 107 -3 106 -53 0 c-29 0 -56 -3 -59 -7z"/>
<path d="M1886 4098 c-38 -90 -86 -203 -107 -252 -21 -48 -36 -92 -33 -97 3
-5 28 -9 55 -9 l50 0 27 60 26 61 105 -3 106 -3 13 -30 c34 -79 35 -80 86 -83
27 -2 52 0 57 5 4 4 -17 67 -47 138 -31 72 -79 185 -107 252 l-52 123 -55 0
-55 0 -69 -162z m148 -40 c45 -102 46 -98 -23 -98 -46 0 -61 4 -61 14 0 14 52
136 58 136 2 0 13 -24 26 -52z"/>
<path d="M2512 4003 l3 -258 50 0 50 0 3 83 3 82 43 0 c43 0 44 0 97 -82 l54
-83 63 -3 c76 -4 78 3 19 84 -72 98 -72 99 -31 123 75 45 94 164 38 239 -46
59 -89 72 -252 72 l-142 0 2 -257z m243 149 c39 -13 55 -28 61 -59 5 -26 1
-37 -19 -57 -23 -23 -34 -26 -102 -26 l-75 0 0 69 c0 46 4 71 13 74 17 8 98 6
122 -1z"/>
<path d="M3120 4249 c0 -6 42 -74 93 -152 l92 -142 5 -105 5 -105 50 0 50 0 5
105 5 105 49 75 c27 41 69 105 93 141 23 37 43 72 43 78 0 8 -20 11 -61 9
l-62 -3 -54 -90 c-30 -49 -58 -94 -62 -98 -4 -4 -34 37 -67 93 l-59 100 -62 0
c-38 0 -63 -4 -63 -11z"/>
<path d="M3835 4248 c-3 -7 -4 -124 -3 -258 l3 -245 55 0 55 0 5 153 5 154 21
-24 c12 -12 48 -59 80 -103 32 -44 60 -82 63 -85 3 -3 23 -27 45 -53 36 -45
41 -48 80 -45 l41 3 3 258 2 257 -55 0 -55 0 0 -152 c0 -179 13 -181 -136 15
l-100 132 -52 3 c-36 2 -54 -1 -57 -10z"/>
</g>
</svg>
