<?xml version="1.0" standalone="no"?>
<!DOCTYPE svg PUBLIC "-//W3C//DTD SVG 20010904//EN"
 "http://www.w3.org/TR/2001/REC-SVG-20010904/DTD/svg10.dtd">
<svg version="1.0" xmlns="http://www.w3.org/2000/svg"
 width="2556.000000pt" height="422.000000pt" viewBox="0 0 2556.000000 422.000000"
 preserveAspectRatio="xMidYMid meet">

<g transform="translate(0.000000,422.000000) scale(0.100000,-0.100000)"
fill="#000000" stroke="none">
<path d="M5560 3054 c-14 -2 -59 -9 -100 -15 -146 -22 -338 -99 -475 -192
-144 -98 -312 -292 -394 -455 -136 -271 -160 -629 -61 -924 165 -491 619 -818
1137 -818 201 0 360 37 540 125 516 254 778 834 628 1392 -117 438 -457 763
-905 864 -81 18 -315 33 -370 23z"/>
<path d="M14212 3049 c-523 -68 -942 -469 -1033 -989 -19 -106 -16 -325 5
-433 92 -473 434 -829 911 -948 107 -27 316 -36 437 -19 532 72 951 487 1029
1020 15 103 6 337 -16 440 -25 111 -88 265 -153 370 -69 112 -199 252 -307
333 -239 179 -573 265 -873 226z"/>
<path d="M23170 3054 c-14 -2 -59 -9 -100 -15 -146 -22 -338 -99 -475 -192
-144 -98 -312 -292 -394 -455 -136 -271 -160 -629 -61 -924 142 -422 504 -732
940 -803 379 -61 758 54 1033 315 318 301 447 760 332 1187 -117 438 -457 763
-905 864 -81 18 -315 33 -370 23z"/>
<path d="M710 1855 l0 -1155 185 0 185 0 2 460 3 459 400 -459 400 -459 239 0
239 -1 -20 23 c-11 12 -242 276 -512 585 l-493 564 19 21 c58 64 950 1085 962
1100 13 16 1 17 -210 17 l-224 -1 -400 -446 -400 -445 -3 446 -2 446 -185 0
-185 0 0 -1155z"/>
<path d="M9410 1855 l0 -1155 180 0 180 0 0 466 0 466 407 -466 406 -466 239
0 239 0 -511 582 c-281 321 -508 588 -505 595 2 7 222 261 487 563 266 303
485 555 486 560 2 6 -78 10 -215 10 l-219 0 -405 -450 -404 -449 -3 449 -2
450 -180 0 -180 0 0 -1155z"/>
<path d="M18100 1855 l0 -1155 185 0 185 0 0 495 c0 465 1 495 18 495 11 0
163 -183 412 -495 l395 -495 203 0 202 0 0 45 c0 46 -3 50 -366 490 -201 244
-366 447 -367 452 -1 4 26 11 61 15 198 22 402 135 507 282 86 121 118 224
117 376 -1 263 -132 466 -371 578 -143 66 -198 72 -718 72 l-463 0 0 -1155z
m945 790 c146 -38 240 -154 240 -295 -1 -84 -32 -156 -92 -211 -91 -84 -165
-99 -490 -99 l-233 0 0 310 0 310 258 0 c199 0 271 -3 317 -15z"/>
</g>
</svg>
