<?xml version="1.0" standalone="no"?>
<!DOCTYPE svg PUBLIC "-//W3C//DTD SVG 20010904//EN"
 "http://www.w3.org/TR/2001/REC-SVG-20010904/DTD/svg10.dtd">
<svg version="1.0" xmlns="http://www.w3.org/2000/svg"
 width="1280.000000pt" height="1119.000000pt" viewBox="0 0 1280.000000 1119.000000"
 preserveAspectRatio="xMidYMid meet">

<g transform="translate(0.000000,1119.000000) scale(0.100000,-0.100000)"
fill="#000000" stroke="none">
<path d="M4940 8018 c-28 -40 -91 -129 -140 -198 l-89 -125 97 -3 c83 -2 98 0
110 15 7 10 68 74 135 143 67 69 147 151 177 183 l54 57 -146 0 -146 0 -52
-72z"/>
<path d="M10345 7604 c-374 -36 -672 -229 -825 -534 -73 -146 -103 -275 -103
-440 1 -215 51 -376 171 -545 140 -198 330 -328 574 -393 95 -25 118 -27 298
-27 213 1 284 12 419 70 303 128 494 413 517 773 l7 102 -406 0 -407 0 0 -100
0 -100 290 0 290 0 0 -23 c0 -63 -69 -211 -131 -284 -169 -195 -417 -280 -699
-238 -191 28 -337 96 -467 219 -249 235 -316 575 -173 873 170 350 590 529
979 417 149 -44 313 -136 418 -237 l42 -40 79 74 80 74 -31 27 c-198 171 -381
268 -587 308 -97 19 -264 31 -335 24z"/>
<path d="M11911 7595 c-95 -21 -168 -61 -234 -126 -132 -132 -161 -327 -75
-508 39 -83 123 -167 313 -315 194 -152 267 -217 324 -294 89 -119 102 -241
35 -346 -76 -119 -239 -180 -372 -138 -101 32 -196 118 -272 247 -13 22 -24
41 -25 43 -1 1 -41 -21 -89 -49 -52 -31 -83 -56 -79 -63 158 -269 331 -386
569 -386 207 0 389 112 479 294 34 69 39 86 43 175 11 239 -90 382 -469 668
-188 141 -240 191 -271 259 -56 127 -21 246 90 311 41 24 57 28 127 27 66 0
89 -4 130 -26 54 -28 107 -75 170 -150 l40 -48 78 61 c42 33 77 64 77 68 0 14
-117 146 -161 182 -129 104 -285 146 -428 114z"/>
<path d="M650 7556 c0 -9 -71 -515 -90 -641 -26 -170 -170 -1194 -170 -1206 0
-14 176 -11 187 4 5 6 17 73 27 147 10 74 28 212 41 305 13 94 33 244 45 335
35 266 68 492 72 496 2 2 143 -276 313 -619 170 -342 317 -634 328 -649 11
-17 27 -28 42 -28 24 0 100 148 548 1063 61 125 114 224 118 220 3 -5 11 -46
18 -93 6 -47 23 -168 36 -270 14 -102 36 -264 50 -360 13 -96 33 -247 45 -335
12 -88 24 -173 28 -190 l8 -30 88 -3 c49 -2 93 1 98 6 6 6 5 34 -2 72 -6 34
-17 108 -25 164 -7 55 -39 274 -69 486 -31 212 -63 432 -71 490 -8 58 -21 152
-30 210 -8 58 -25 173 -36 255 -12 83 -23 156 -25 163 -6 21 -47 9 -61 -18 -8
-14 -114 -230 -236 -480 -123 -250 -281 -573 -352 -717 -71 -145 -131 -263
-134 -263 -3 0 -172 335 -375 745 -331 668 -372 745 -393 745 -13 0 -23 -2
-23 -4z"/>
<path d="M2702 6633 l3 -928 98 -3 97 -3 0 931 0 930 -100 0 -100 0 2 -927z"/>
<path d="M3202 6633 l3 -928 453 -3 452 -2 0 100 0 100 -355 0 -355 0 0 830 0
830 -100 0 -100 0 2 -927z"/>
<path d="M4293 6853 c3 -623 5 -716 20 -771 32 -118 95 -217 185 -286 122 -93
220 -126 394 -133 118 -5 135 -3 212 21 101 31 185 85 262 169 69 74 106 151
136 277 21 92 22 119 25 763 l4 667 -99 0 -100 0 -5 -667 c-3 -368 -8 -684
-12 -703 -10 -53 -47 -134 -83 -185 -65 -93 -226 -163 -345 -150 -128 14 -255
75 -319 155 -15 20 -38 63 -50 95 -23 60 -23 62 -26 758 l-3 697 -100 0 -100
0 4 -707z"/>
<path d="M6470 6631 l0 -931 100 0 100 0 0 430 0 430 48 0 47 0 90 -117 c50
-65 199 -258 333 -430 l243 -313 119 0 c66 0 120 3 120 6 0 3 -44 63 -98 133
-54 69 -176 227 -272 351 -95 124 -198 256 -228 293 -30 37 -53 69 -51 72 3 2
47 7 99 11 104 7 230 42 298 81 140 82 222 236 222 418 0 141 -43 247 -135
340 -31 30 -83 69 -116 86 -107 53 -167 61 -561 66 l-358 5 0 -931z m790 698
c148 -69 209 -222 150 -378 -30 -82 -96 -142 -188 -172 -59 -19 -96 -22 -309
-27 l-243 -4 0 307 0 307 268 -4 c263 -3 268 -3 322 -29z"/>
<path d="M7923 6863 c4 -771 4 -766 70 -898 38 -76 142 -180 227 -227 131 -72
350 -100 495 -63 183 47 342 195 399 370 41 128 46 222 46 883 l0 632 -100 0
-99 0 -3 -687 c-3 -679 -4 -689 -25 -745 -82 -217 -293 -320 -515 -253 -176
53 -271 164 -284 331 -3 43 -8 88 -9 99 -2 11 -4 298 -4 638 l-1 617 -101 0
-100 0 4 -697z"/>
<path d="M407 5263 c-4 -3 -7 -15 -7 -25 0 -17 191 -18 6080 -18 l6080 0 0 25
0 25 -6073 0 c-3341 0 -6077 -3 -6080 -7z"/>
<path d="M5277 4639 c-104 -24 -192 -95 -242 -195 -28 -54 -30 -67 -30 -164 0
-92 3 -111 25 -155 33 -66 112 -142 180 -174 47 -21 69 -25 150 -25 81 0 103
4 150 25 70 33 146 109 178 178 30 66 40 176 22 250 -43 182 -246 304 -433
260z m208 -90 c26 -13 67 -45 90 -71 175 -195 25 -503 -236 -485 -193 13 -313
197 -252 386 27 84 109 164 194 190 53 16 151 7 204 -20z"/>
<path d="M9985 4631 c-134 -60 -135 -199 -3 -306 103 -83 165 -144 178 -175
28 -67 -22 -147 -97 -157 -51 -7 -96 16 -131 67 -30 44 -41 47 -72 22 l-21
-17 30 -42 c17 -24 50 -55 73 -70 35 -24 52 -28 108 -28 56 0 73 4 108 28 80
52 108 159 65 242 -24 45 -69 90 -160 158 -34 26 -71 59 -82 73 -27 35 -28 93
-1 122 43 46 105 40 161 -15 36 -34 37 -35 63 -18 14 10 26 21 26 25 0 18 -91
89 -126 99 -53 15 -72 14 -119 -8z"/>
<path d="M2820 4513 c-29 -65 -77 -167 -106 -228 -28 -60 -77 -163 -107 -227
l-56 -118 40 0 40 0 51 110 51 110 151 0 151 0 52 -110 c51 -110 51 -110 87
-110 20 0 36 2 36 5 0 2 -48 107 -106 232 -58 126 -128 279 -156 341 -28 61
-56 112 -63 112 -6 0 -35 -53 -65 -117z m125 -159 c30 -65 55 -119 55 -120 0
-2 -52 -4 -115 -4 -63 0 -115 2 -115 4 0 9 111 236 115 236 3 0 30 -52 60
-116z"/>
<path d="M3590 4285 l0 -345 165 0 165 0 0 35 0 35 -130 0 -130 0 0 310 0 310
-35 0 -35 0 0 -345z"/>
<path d="M4290 4285 l0 -345 35 0 35 0 0 165 0 165 140 0 140 0 0 40 0 40
-140 0 -140 0 0 105 0 105 140 0 140 0 0 35 0 35 -175 0 -175 0 0 -345z"/>
<path d="M6166 4428 c-16 -112 -37 -257 -47 -323 -26 -166 -26 -165 15 -165
l34 0 7 68 c8 76 55 405 58 409 2 1 57 -106 122 -237 66 -132 125 -240 131
-240 11 0 45 64 187 360 48 100 62 121 68 105 4 -11 8 -35 8 -53 1 -18 10 -87
20 -155 11 -67 22 -152 26 -189 l7 -68 34 0 c41 0 41 -6 14 178 -36 247 -59
406 -66 460 -3 28 -10 52 -14 52 -8 0 -38 -59 -207 -407 -40 -84 -75 -153 -76
-153 -2 0 -66 126 -142 280 -77 154 -142 280 -145 280 -4 0 -19 -91 -34 -202z"/>
<path d="M7270 4286 l0 -346 124 0 c176 0 235 25 277 115 39 85 12 183 -63
231 -24 16 -44 29 -46 30 -1 1 11 16 27 33 48 52 55 154 13 210 -39 53 -76 65
-209 69 l-123 4 0 -346z m223 265 c105 -40 82 -179 -33 -202 -25 -4 -60 -8
-77 -9 l-33 0 0 110 0 110 59 0 c33 0 71 -4 84 -9z m47 -304 c44 -23 80 -74
80 -112 0 -31 -36 -83 -72 -105 -26 -16 -51 -20 -115 -20 l-83 0 0 130 0 130
73 0 c58 0 83 -5 117 -23z"/>
<path d="M8098 4624 c-5 -4 -8 -160 -8 -346 l0 -338 40 0 40 0 0 160 c0 192 6
198 89 87 30 -40 84 -111 120 -159 65 -86 67 -88 109 -88 53 0 57 -8 -82 170
-58 74 -106 138 -106 141 0 4 24 10 52 13 67 9 117 37 148 83 20 29 25 49 25
98 0 74 -27 121 -90 157 -35 19 -57 23 -185 26 -80 2 -148 1 -152 -4z m286
-78 c44 -18 66 -52 66 -101 0 -84 -51 -115 -190 -115 l-90 0 0 115 0 115 90 0
c55 0 104 -6 124 -14z"/>
<path d="M9166 4558 c-18 -40 -90 -194 -160 -341 -69 -148 -126 -270 -126
-273 0 -2 17 -4 38 -4 l38 0 51 110 51 110 151 0 151 0 51 -110 52 -110 39 0
c22 0 37 3 35 8 -9 15 -97 204 -97 207 0 2 -29 65 -65 140 -36 75 -65 138 -65
140 0 15 -93 195 -101 195 -5 0 -25 -33 -43 -72z m102 -200 c29 -62 52 -116
52 -120 0 -5 -49 -8 -110 -8 -60 0 -110 3 -110 8 0 12 104 232 110 232 4 0 30
-51 58 -112z"/>
</g>
</svg>
